<svg xmlns="http://www.w3.org/2000/svg" width="63" height="50" fill="none"><rect width="54.132" height="50" x="4.305" fill="#F1592A" rx="7.832"/><path fill="#fff" d="M18.503 27.416c0-1.114.226-2.086.678-2.914a4.827 4.827 0 0 1 1.965-1.92c.859-.452 1.868-.678 3.028-.678 2.229 0 3.788.692 4.676 2.078.889 1.386 1.333 3.426 1.333 6.122 0 1.958-.18 3.577-.542 4.857-.347 1.266-.941 2.23-1.785 2.892-.828.663-1.965.994-3.411.994-1.145 0-2.124-.226-2.937-.678-.798-.451-1.416-1.046-1.852-1.784a5.615 5.615 0 0 1-.723-2.44h3.569c.226 1.19.919 1.785 2.078 1.785.799 0 1.363-.354 1.695-1.062.331-.708.497-1.86.497-3.457-.332.467-.784.829-1.356 1.085-.572.256-1.212.384-1.92.384-.964 0-1.822-.196-2.575-.588a4.426 4.426 0 0 1-1.785-1.784c-.422-.799-.633-1.762-.633-2.892Zm4.225 1.604c.376.407.926.61 1.649.61.633 0 1.137-.188 1.514-.565.376-.392.564-.919.564-1.581 0-.723-.195-1.28-.587-1.672-.391-.392-.919-.587-1.581-.587-.663 0-1.19.203-1.582.61-.376.391-.564.933-.564 1.626 0 .648.195 1.167.587 1.559Zm9.832 3.592v-3.457h3.931v-4.043h3.66v4.044h3.93v3.456h-3.93v4.021h-3.66v-4.021h-3.93ZM21.565 17.118h-3.343l-.553 1.599h-1.767l3.018-8.405h1.96l3.018 8.405h-1.78l-.553-1.6Zm-.457-1.347-1.214-3.511-1.215 3.51h2.43Zm9.762-2.922a1.971 1.971 0 0 0-.794-.806c-.337-.184-.73-.276-1.178-.276-.497 0-.938.112-1.323.336a2.325 2.325 0 0 0-.902.962c-.216.417-.324.898-.324 1.443 0 .561.108 1.05.324 1.467.225.417.533.738.926.962.393.225.85.337 1.37.337.642 0 1.167-.169 1.576-.505.409-.345.677-.822.806-1.431h-2.886v-1.287h4.545v1.467a3.942 3.942 0 0 1-.721 1.624 4.116 4.116 0 0 1-1.431 1.202c-.577.297-1.227.445-1.948.445-.81 0-1.543-.18-2.2-.541a4.079 4.079 0 0 1-1.54-1.527c-.369-.65-.553-1.387-.553-2.213 0-.825.184-1.563.553-2.212a3.969 3.969 0 0 1 1.54-1.527 4.396 4.396 0 0 1 2.188-.553c.946 0 1.767.232 2.465.697.697.457 1.178 1.102 1.443 1.936H30.87Zm5.069-1.166v2.104h2.826v1.334h-2.826v2.225h3.186v1.37h-4.87v-8.404h4.87v1.37H35.94Zm7.614 7.118a4.03 4.03 0 0 1-1.587-.3 2.602 2.602 0 0 1-1.106-.866c-.273-.377-.413-.822-.421-1.335h1.803c.024.345.145.617.361.818.225.2.53.3.914.3.393 0 .701-.092.926-.276a.936.936 0 0 0 .337-.746.854.854 0 0 0-.229-.613 1.529 1.529 0 0 0-.577-.373 7.902 7.902 0 0 0-.938-.313c-.545-.16-.99-.316-1.335-.468a2.474 2.474 0 0 1-.877-.71c-.241-.32-.361-.745-.361-1.274 0-.497.124-.93.373-1.3.248-.368.597-.648 1.046-.84.449-.201.962-.301 1.539-.301.865 0 1.567.212 2.104.637.545.417.846 1.002.902 1.755h-1.852a.937.937 0 0 0-.373-.709c-.224-.192-.525-.289-.901-.289-.33 0-.594.085-.794.253-.192.168-.289.413-.289.733a.79.79 0 0 0 .217.566c.152.144.337.264.553.36.224.088.537.193.938.313.545.16.99.32 1.334.48.345.161.642.402.89.722.249.321.373.742.373 1.263 0 .449-.116.866-.349 1.25-.232.385-.573.694-1.022.926-.449.225-.982.337-1.599.337Z"/></svg>