<svg xmlns="http://www.w3.org/2000/svg" width="63" height="50" fill="none"><rect width="54.132" height="50" x="4.5" fill="#1045BA" rx="7.832"/><path fill="#fff" d="M16.59 25.88v-3.592h6.257v16.491h-4.02v-12.9H16.59Zm8.493 0v-3.592h6.258v16.491H27.32v-12.9h-2.237Zm9.217 6.732v-3.457h3.93v-4.043h3.66v4.044h3.931v3.456h-3.93v4.021h-3.66v-4.021H34.3ZM21.76 17.118h-3.342l-.553 1.599h-1.768l3.018-8.405h1.96l3.018 8.405h-1.78l-.553-1.6Zm-.457-1.347L20.09 12.26l-1.214 3.51h2.428Zm9.762-2.922a1.97 1.97 0 0 0-.794-.806c-.336-.184-.729-.276-1.178-.276-.497 0-.938.112-1.323.336a2.325 2.325 0 0 0-.901.962c-.217.417-.325.898-.325 1.443 0 .561.108 1.05.325 1.467.224.417.533.738.925.962.393.225.85.337 1.371.337.642 0 1.167-.169 1.575-.505.41-.345.678-.822.806-1.431H28.66v-1.287h4.545v1.467a3.942 3.942 0 0 1-.721 1.624 4.116 4.116 0 0 1-1.43 1.202c-.578.297-1.227.445-1.949.445-.81 0-1.543-.18-2.2-.541a4.079 4.079 0 0 1-1.54-1.527c-.368-.65-.553-1.387-.553-2.213 0-.825.185-1.563.554-2.212a3.969 3.969 0 0 1 1.539-1.527 4.396 4.396 0 0 1 2.188-.553c.946 0 1.768.232 2.465.697.697.457 1.178 1.102 1.443 1.936h-1.936Zm5.07-1.166v2.104h2.825v1.334h-2.826v2.225h3.187v1.37h-4.87v-8.404h4.87v1.37h-3.187Zm7.613 7.118a4.03 4.03 0 0 1-1.587-.3 2.602 2.602 0 0 1-1.106-.866c-.273-.377-.413-.822-.42-1.335h1.803c.024.345.144.617.36.818.225.2.53.3.914.3.393 0 .702-.092.926-.276a.937.937 0 0 0 .337-.746.854.854 0 0 0-.229-.613 1.529 1.529 0 0 0-.577-.373 7.895 7.895 0 0 0-.938-.313c-.545-.16-.99-.316-1.334-.468a2.474 2.474 0 0 1-.878-.71c-.24-.32-.36-.745-.36-1.274 0-.497.123-.93.372-1.3.248-.368.597-.648 1.046-.84.449-.201.962-.301 1.54-.301.865 0 1.566.212 2.103.637.545.417.846 1.002.902 1.755H44.77a.937.937 0 0 0-.372-.709c-.225-.192-.525-.289-.902-.289-.329 0-.593.085-.794.253-.192.168-.288.413-.288.733a.79.79 0 0 0 .216.566c.152.144.337.264.553.36.225.088.537.193.938.313.545.16.99.32 1.335.48.344.161.641.402.89.722.248.321.372.742.372 1.263 0 .449-.116.866-.348 1.25-.233.385-.573.694-1.022.926-.45.225-.982.337-1.6.337Z"/></svg>